<?xml version="1.0" encoding="UTF-8"?>
<svg width="924.54" height="96.564" version="1.1" xmlns="http://www.w3.org/2000/svg" xmlns:cc="http://creativecommons.org/ns#" xmlns:dc="http://purl.org/dc/elements/1.1/" xmlns:rdf="http://www.w3.org/1999/02/22-rdf-syntax-ns#" fill="white">
 <metadata>
  <rdf:RDF>
   <cc:Work rdf:about="">
    <dc:format>image/svg+xml</dc:format>
    <dc:type rdf:resource="http://purl.org/dc/dcmitype/StillImage"/>
    <dc:title/>
   </cc:Work>
  </rdf:RDF>
 </metadata>
 <symbol viewBox="0 0 924.54 96.564" preserveAspectRatio="xMinyMin" id="logo" height="100%">
  <g transform="matrix(.70882 0 0 .70882 0 -1.7182)">
   <g id="force">
    <path d="m872.07 2.4711c-42.932-0.3946-73.512 36.29-71.816 90.661 0.40817 13.089 0.98442 15.019 3.9395 21.153 5.6504 11.729 16.088 20.041 28.789 22.928 8.0177 1.8222 21.811 1.5618 30.299-0.57088 35.532-8.928 56.775-43.078 55.152-88.664-0.42435-11.923-1.0572-15.34-3.9609-21.377-7.0294-14.615-20.032-22.773-38.209-23.971-1.4099-0.092964-2.8085-0.14554-4.1934-0.15826zm262.2 0.14535c-16.715 0.24911-31.161 5.8844-43.197 16.861-13.328 12.154-20.768 27.987-25.137 53.493-6.0103 35.089 4.0645 57.57 28.668 63.968 14.426 3.7515 35.397 1.1292 49.68-6.2111 12.71-6.5322 24.979-21.562 28.432-34.828l0.9102-3.4935h-27.926l-2.2637 5.7101c-5.0243 12.686-13.289 17.944-28.33 18.023-10.815 0.0569-15.073-2.0368-19.77-9.7253-2.1739-3.5588-2.6389-6.5036-2.5176-15.936 0.1776-13.795 4.6754-35.673 9.4492-45.96 6.4484-13.895 18.81-21.393 32.664-19.816 12.385 1.4097 18.404 7.5326 18.404 18.722v5.2695h28.352l-0.627-9.3204c-1.492-22.224-14.989-34.712-39.488-36.534-2.4801-0.18441-4.9148-0.25782-7.3027-0.22223zm-427.55-0.15233-0.67969 3c-0.37376 1.65-5.4875 30.601-11.363 64.334-5.8757 33.733-11.033 63.005-11.461 65.047l-0.77929 3.7129 14.402-0.38086 14.4-0.37891 4.6934-27.666 4.6953-27.668h27.02c14.861 0 27.021-0.24667 27.021-0.54883 0-0.30215 0.90012-5.2522 2-11 1.0999-5.7478 1.9999-10.6 2-10.783 1.2e-4 -0.18334-12.077-0.33398-26.838-0.33398h-26.836l0.88867-5.666c0.48904-3.1167 1.8413-10.917 3.0059-17.334l2.1172-11.666h60.604l1.5293-9.2578c0.8408-5.0913 1.5293-10.19 1.5293-11.332 0-1.8378-5.055-2.0781-43.975-2.0781zm277.06 0c-29.049 0-29.063 0.0014-29.742 3-0.37376 1.65-5.4876 30.601-11.363 64.334-5.8758 33.733-11.033 63.005-11.461 65.047l-0.77929 3.7129 14.357-0.38086 14.355-0.37891 4.3535-24c2.3944-13.2 4.3861-24.151 4.4258-24.334 0.0398-0.18333 5.0348-0.33203 11.1-0.33203h11.027l8.0684 24.332 8.0683 24.334 15.572 0.375c8.564 0.2066 15.57 0.11127 15.57-0.21289 0-0.5658-15.654-44.368-18.49-51.738-1.3081-3.3996-1.0249-3.7754 5.6855-7.5625 13.973-7.8861 22.768-22.122 24.363-39.439 0.9429-10.232-1.1777-18.135-6.4883-24.184-9.1944-10.472-18.982-12.572-58.623-12.572zm229.6 0-0.6797 3c-0.3737 1.65-5.4876 30.601-11.363 64.334-5.8757 33.733-11.028 62.983-11.451 65l-0.7675 3.666h91.822l3.8008-22-31.529-0.35547-31.529-0.35742 3.1484-17.643c1.7325-9.7038 3.1582-17.781 3.1582-17.949 0-0.16814 12.133-0.46749 26.953-0.66602l26.945-0.36132 0.9492-4.6465c0.522-2.5548 1.3335-7.2035 1.8027-10.332l0.8536-5.6895h-26.748c-14.712 0-26.75-0.1487-26.74-0.33203 0-0.18333 1.2013-7.2346 2.6582-15.668 1.457-8.4333 2.6482-15.782 2.6582-16.332 0-0.55 14.326-1 31.826-1h31.82l0.7773-5.668c0.4278-3.1167 1.1846-8.2154 1.6836-11.332l0.9082-5.668h-45.478zm-345.79 22.362c10.33-0.04119 18.838 5.8879 21.656 15.678 3.187 11.071 0.13668 35.111-6.6504 52.408-3.7665 9.5994-14.066 19.983-22.09 22.27-11.148 3.1775-19.932 1.1594-26.195-6.0216-6.6631-7.6388-7.8977-19.028-4.2461-39.167 4.8463-26.727 14.952-40.953 31.623-44.518 2.0133-0.43049 3.9894-0.64239 5.9024-0.65002zm125.11 0.30604c15.335 0 21.512 1.6778 25.115 6.8223 4.1242 5.888 1.9086 20.093-4.209 26.982-1.2554 1.4138-4.6839 3.6725-7.6172 5.0195-4.1071 1.886-8.6283 2.456-19.666 2.4785-7.8833 0.0161-14.331-0.4207-14.328-0.9707s1.5037-9.3688 3.334-19.598c1.8302-10.229 3.3281-19.078 3.3281-19.666s6.3193-1.0684 14.043-1.0684z" fill="#c32026"/>
   </g>
   <g id="direkt" fill="inherit">
    <path d="m173.33 2.4241v136.23h28v-49.334h22.512l12.84 24.666 12.84 24.668h15.238c8.381 0 15.236-0.33264 15.236-0.73828s-6.6691-13.132-14.822-28.281c-8.7361-16.232-14.201-27.752-13.305-28.051 5.3321-1.7774 14.331-9.8546 17.781-15.961 5.1683-9.1481 6.4648-23.963 3.1074-35.512-2.9474-10.139-11.671-19.127-22.84-23.535-7.4325-2.9336-10.039-3.1584-42.254-3.6406zm-173.33 0.23242v136h24.486c13.467 0 27.672-0.60481 31.568-1.3438 22.553-4.2771 40.34-21.892 45.893-45.447 2.5389-10.771 2.5817-29.829 0.0937-41.57-5.0374-23.772-23.099-41.954-45.986-46.295-3.8964-0.73894-18.102-1.3438-31.568-1.3438zm124 0v136h28v-136h-14zm173.33 0v136h90.666v-22.668h-62.666v-36h53.334v-21.332h-53.334v-33.334h62.666v-22.666h-45.332zm110.67 0v136h27.949l0.35937-29.537 0.35938-29.537 22.521 28.984c12.387 15.941 23.221 29.253 24.074 29.58 0.85353 0.32759 8.9283 0.4258 17.945 0.21875l16.395-0.37695-26.801-33.504c-14.741-18.428-26.803-33.859-26.803-34.291 0-0.43159 11.454-15.654 25.453-33.828l25.453-33.043-16.379-0.37695c-9.0082-0.20705-17.068-0.1123-17.91 0.21094s-11.075 13.553-22.74 29.398l-21.209 28.809-0.35938-29.354-0.35937-29.354h-13.975zm120 0v22.666h41.334v113.33h28v-113.33h41.334v-22.666h-55.334zm-500 22.34 11.688 0.5586c20.029 0.95761 29.523 8.1302 33.781 25.518 2.4449 9.9841 2.0933 31.935-0.66211 41.352-2.914 9.959-10.569 18.552-19.123 21.467-3.396 1.1572-10.536 2.0977-15.92 2.0977h-9.7637v-45.496zm173.33 0.32617h14.385c12.265 0 15.259 0.44192 20.332 3 14.35 7.2362 14.35 28.098 0 35.334-5.0728 2.5581-8.0668 3-20.332 3h-14.385v-20.668z" stroke-width="1.3333" fill="inherit"/>
   </g>
  </g>
 </symbol>
 <use href="#logo" x="0" y="0"></use>
</svg>
